<svg class="joy-badge-level__supermalter" xmlns="http://www.w3.org/2000/svg" fill="none" viewBox="0 0 12 18" data-v-08a5e2c8="">
  <path fill="#264FFA" d="M5.71533 12.2962 11.4243 18l.0049-11.45716-5.71387 5.75336Z" data-v-08a5e2c8=""></path>
  <path fill="#FC5757" d="M.00195312 6.54284.00671145 18 5.7158 12.2962.00195312 6.54284Z" data-v-08a5e2c8=""></path>
  <path fill="#FFC200" d="M11.4289 5.68249c-.0059-1.52434-.6069-2.9554-1.69067-4.02851C8.95862.882797 7.99681.362073 6.9506.132677 6.95037.132599 6.95021.132599 6.94998.132521c-.04337-.009516-.08681-.018408-.13041-.02691-.0057-.001092-.01147-.002184-.01724-.003276-.0383-.0073317-.07675-.0142735-.11529-.0208255-.01068-.001794-.02144-.00351-.03213-.005304-.03385-.0055379-.06778-.0108418-.10179-.0158338-.01505-.002184-.03011-.0042121-.04516-.0063181-.03011-.0041339-.06022-.008112-.0904-.0117779-.01857-.002262-.03721-.0042901-.05577-.006396C6.33472.0328377 6.30766.029952 6.28051.0273 6.25914.025194 6.23769.0233999 6.21624.0215279 6.19144.0194219 6.16671.017316 6.14183.015522 6.11851.013806 6.09511.0123239 6.07171.0109199 6.04831.00951588 6.02483.00811199 6.00135.006942 5.9771.00577201 5.95276.00483616 5.92842.00397816 5.90541.00312017 5.8824.00234019 5.85931.00179419c-.02433-.00062399-.04874-.0009362-.07316-.0012482C5.76267.000234 5.73912 0 5.71564 0c-.02355 0-.04703.000234-.07051.000546-.02442.000312-.04883.0006242-.07316.00124819-.02309.000546-.0461.00140398-.06911.00218397-.02434.000858-.04859.00179385-.07293.00296384-.02348.00116999-.04696.00257388-.07036.0039779-.0234.001404-.0468.0028861-.07012.0046021-.0248.001794-.0496.0038999-.07441.0060059-.02145.001872-.0429.0036661-.06427.0057721-.02714.002652-.05421.0055377-.08135.0085797-.01857.0021059-.03721.004134-.05577.006396-.03019.0036659-.06037.007644-.09048.0117779-.01506.002106-.03011.0041341-.04516.0063181-.03401.004992-.06794.0102959-.10179.0158338-.01077.001794-.02145.00351-.03214.005304-.03853.006552-.07699.0134938-.11528.0208255-.00578.001092-.01155.002184-.01724.003276-.0436.008502-.08705.017394-.13041.02691-.00024.000078-.00047.000078-.00071.000156C3.43424.361995 2.4725.882719 1.6929 1.65398.609098 2.72702.00811193 4.15815.00218397 5.68249L0 6.15064l.00171623.39226L5.71556 12.2962l5.71384-5.7533.0017-.39202-.0022-.46839Z" data-v-08a5e2c8=""></path>
</svg>