<svg viewBox="0 0 32 32" fill="#5e88dd" xmlns="http://www.w3.org/2000/svg"><path d="m21 2a9 9 0 0 0 -9 9 8.87 8.87 0 0 0 .39 2.61l-10.39 10.39v6h6l10.39-10.39a9 9 0 0 0 11.61-7.87 8.77 8.77 0 0 0 -1.65-6 9 9 0 0 0 -7.35-3.74zm0 16a7 7 0 0 1 -2-.3l-1.15-.35-.85.85-3.18 3.18-1.41-1.38-1.41 1.41 1.38 1.38-1.59 1.59-1.38-1.38-1.41 1.41 1.38 1.38-2.21 2.21h-3.17v-3.17l9.8-9.83.85-.85-.29-.95a7.14 7.14 0 0 1 3.4-8.44 7 7 0 0 1 10.24 6 6.69 6.69 0 0 1 -1.09 4 7 7 0 0 1 -5.91 3.24z"/><circle cx="22" cy="10" r="2"/><path d="m0 0h32v32h-32z" fill="none"/></svg>